{
    "asset" : {
        "generator" : "Khronos glTF Blender I/O v1.1.46",
        "version" : "2.0"
    },
    "scene" : 0,
    "scenes" : [
        {
            "name" : "Scene",
            "nodes" : [
                0
            ]
        }
    ],
    "nodes" : [
        {
            "mesh" : 0,
            "name" : "AnnaTurtle.009",
            "rotation" : [
                0.7071068286895752,
                0,
                0,
                0.7071067094802856
            ]
        }
    ],
    "materials" : [
        {
            "alphaMode" : "BLEND",
            "doubleSided" : true,
            "emissiveFactor" : [
                0,
                0,
                0
            ],
            "name" : "lambert2SG.010",
            "pbrMetallicRoughness" : {
                "baseColorFactor" : [
                    0,
                    0.20000000298023224,
                    0.05000000074505806,
                    1
                ],
                "metallicFactor" : 0,
                "roughnessFactor" : 1
            }
        },
        {
            "alphaMode" : "BLEND",
            "doubleSided" : true,
            "emissiveFactor" : [
                0,
                0,
                0
            ],
            "name" : "lambert3SG.010",
            "pbrMetallicRoughness" : {
                "baseColorFactor" : [
                    0,
                    0.3199999928474426,
                    0.12999999523162842,
                    1
                ],
                "metallicFactor" : 0,
                "roughnessFactor" : 1
            }
        },
        {
            "alphaMode" : "BLEND",
            "doubleSided" : true,
            "emissiveFactor" : [
                0,
                0,
                0
            ],
            "name" : "lambert4SG.010",
            "pbrMetallicRoughness" : {
                "baseColorFactor" : [
                    0.5,
                    0.5,
                    0.5,
                    1
                ],
                "metallicFactor" : 0,
                "roughnessFactor" : 1
            }
        }
    ],
    "meshes" : [
        {
            "name" : "AnnaTurtle.009",
            "primitives" : [
                {
                    "attributes" : {
                        "POSITION" : 0,
                        "NORMAL" : 1,
                        "TEXCOORD_0" : 2
                    },
                    "indices" : 3,
                    "material" : 0
                },
                {
                    "attributes" : {
                        "POSITION" : 4,
                        "NORMAL" : 5,
                        "TEXCOORD_0" : 6
                    },
                    "indices" : 7,
                    "material" : 1
                },
                {
                    "attributes" : {
                        "POSITION" : 8,
                        "NORMAL" : 9,
                        "TEXCOORD_0" : 10
                    },
                    "indices" : 11,
                    "material" : 2
                }
            ]
        }
    ],
    "accessors" : [
        {
            "bufferView" : 0,
            "componentType" : 5126,
            "count" : 535,
            "max" : [
                3.5446810722351074,
                4.663072109222412,
                -0.0843140035867691
            ],
            "min" : [
                -3.828821897506714,
                -6.117915153503418,
                -2.747627019882202
            ],
            "type" : "VEC3"
        },
        {
            "bufferView" : 1,
            "componentType" : 5126,
            "count" : 535,
            "type" : "VEC3"
        },
        {
            "bufferView" : 2,
            "componentType" : 5126,
            "count" : 535,
            "type" : "VEC2"
        },
        {
            "bufferView" : 3,
            "componentType" : 5123,
            "count" : 1974,
            "type" : "SCALAR"
        },
        {
            "bufferView" : 4,
            "componentType" : 5126,
            "count" : 2431,
            "max" : [
                8.364624977111816,
                4.943615913391113,
                -0.09963399916887283
            ],
            "min" : [
                -8.518322944641113,
                -8.218124389648438,
                -2.6926560401916504
            ],
            "type" : "VEC3"
        },
        {
            "bufferView" : 5,
            "componentType" : 5126,
            "count" : 2431,
            "type" : "VEC3"
        },
        {
            "bufferView" : 6,
            "componentType" : 5126,
            "count" : 2431,
            "type" : "VEC2"
        },
        {
            "bufferView" : 7,
            "componentType" : 5123,
            "count" : 9771,
            "type" : "SCALAR"
        },
        {
            "bufferView" : 8,
            "componentType" : 5126,
            "count" : 38400,
            "max" : [
                6.2672247886657715,
                6.736734867095947,
                -0.2553279995918274
            ],
            "min" : [
                -8.401533126831055,
                -9.381750106811523,
                -5.079348087310791
            ],
            "type" : "VEC3"
        },
        {
            "bufferView" : 9,
            "componentType" : 5126,
            "count" : 38400,
            "type" : "VEC3"
        },
        {
            "bufferView" : 10,
            "componentType" : 5126,
            "count" : 38400,
            "type" : "VEC2"
        },
        {
            "bufferView" : 11,
            "componentType" : 5123,
            "count" : 57600,
            "type" : "SCALAR"
        }
    ],
    "bufferViews" : [
        {
            "buffer" : 0,
            "byteLength" : 6420,
            "byteOffset" : 0
        },
        {
            "buffer" : 0,
            "byteLength" : 6420,
            "byteOffset" : 6420
        },
        {
            "buffer" : 0,
            "byteLength" : 4280,
            "byteOffset" : 12840
        },
        {
            "buffer" : 0,
            "byteLength" : 3948,
            "byteOffset" : 17120
        },
        {
            "buffer" : 0,
            "byteLength" : 29172,
            "byteOffset" : 21068
        },
        {
            "buffer" : 0,
            "byteLength" : 29172,
            "byteOffset" : 50240
        },
        {
            "buffer" : 0,
            "byteLength" : 19448,
            "byteOffset" : 79412
        },
        {
            "buffer" : 0,
            "byteLength" : 19542,
            "byteOffset" : 98860
        },
        {
            "buffer" : 0,
            "byteLength" : 460800,
            "byteOffset" : 118404
        },
        {
            "buffer" : 0,
            "byteLength" : 460800,
            "byteOffset" : 579204
        },
        {
            "buffer" : 0,
            "byteLength" : 307200,
            "byteOffset" : 1040004
        },
        {
            "buffer" : 0,
            "byteLength" : 115200,
            "byteOffset" : 1347204
        }
    ],
    "buffers" : [
        {
            "byteLength" : 1462404,
            "uri" : "data:application/octet-stream;base64,"
        }
    ]
}
