{
    "asset" : {
        "generator" : "Khronos glTF Blender I/O v1.1.46",
        "version" : "2.0"
    },
    "scene" : 0,
    "scenes" : [
        {
            "name" : "Scene",
            "nodes" : [
                0
            ]
        }
    ],
    "nodes" : [
        {
            "mesh" : 0,
            "name" : "AnnaBird",
            "rotation" : [
                -0.7005255818367004,
                0.7019316554069519,
                0.09107698500156403,
                0.0908890888094902
            ],
            "translation" : [
                -0.22788220643997192,
                6,
                5
            ]
        }
    ],
    "materials" : [
        {
            "alphaMode" : "BLEND",
            "doubleSided" : true,
            "emissiveFactor" : [
                0,
                0,
                0
            ],
            "name" : "Bottle_Model_Combined:lambert2SG",
            "pbrMetallicRoughness" : {
                "baseColorFactor" : [
                    0.07000000029802322,
                    0.03999999910593033,
                    1,
                    1
                ],
                "metallicFactor" : 0.20999999344348907,
                "roughnessFactor" : 1
            }
        },
        {
            "alphaMode" : "BLEND",
            "doubleSided" : true,
            "emissiveFactor" : [
                0,
                0,
                0
            ],
            "name" : "Bottle_Model_Combined:lambert3SG",
            "pbrMetallicRoughness" : {
                "baseColorFactor" : [
                    0.5899999737739563,
                    0.8100000023841858,
                    1,
                    1
                ],
                "metallicFactor" : 0,
                "roughnessFactor" : 1
            }
        },
        {
            "alphaMode" : "BLEND",
            "doubleSided" : true,
            "emissiveFactor" : [
                0,
                0,
                0
            ],
            "name" : "lambert3SG.002",
            "pbrMetallicRoughness" : {
                "baseColorFactor" : [
                    0.3499999940395355,
                    0.27000001072883606,
                    0.20999999344348907,
                    1
                ],
                "metallicFactor" : 0,
                "roughnessFactor" : 1
            }
        },
        {
            "alphaMode" : "BLEND",
            "doubleSided" : true,
            "emissiveFactor" : [
                0,
                0,
                0
            ],
            "name" : "initialShadingGroup.001",
            "pbrMetallicRoughness" : {
                "baseColorFactor" : [
                    0.5,
                    0.5,
                    0.5,
                    1
                ],
                "metallicFactor" : 0,
                "roughnessFactor" : 1
            }
        },
        {
            "alphaMode" : "BLEND",
            "doubleSided" : true,
            "emissiveFactor" : [
                0,
                0,
                0
            ],
            "name" : "lambert4SG.001",
            "pbrMetallicRoughness" : {
                "baseColorFactor" : [
                    0.38999998569488525,
                    0.33000001311302185,
                    0.33000001311302185,
                    1
                ],
                "metallicFactor" : 0,
                "roughnessFactor" : 1
            }
        },
        {
            "alphaMode" : "BLEND",
            "doubleSided" : true,
            "emissiveFactor" : [
                0,
                0,
                0
            ],
            "name" : "lambert5SG",
            "pbrMetallicRoughness" : {
                "baseColorFactor" : [
                    0,
                    0,
                    0,
                    1
                ],
                "metallicFactor" : 0,
                "roughnessFactor" : 1
            }
        },
        {
            "alphaMode" : "BLEND",
            "doubleSided" : true,
            "emissiveFactor" : [
                0,
                0,
                0
            ],
            "name" : "lambert2SG.002",
            "pbrMetallicRoughness" : {
                "baseColorFactor" : [
                    1,
                    1,
                    1,
                    1
                ],
                "metallicFactor" : 0,
                "roughnessFactor" : 1
            }
        }
    ],
    "meshes" : [
        {
            "name" : "AnnaBird",
            "primitives" : [
                {
                    "attributes" : {
                        "POSITION" : 0,
                        "NORMAL" : 1,
                        "TEXCOORD_0" : 2
                    },
                    "indices" : 3,
                    "material" : 0
                },
                {
                    "attributes" : {
                        "POSITION" : 4,
                        "NORMAL" : 5,
                        "TEXCOORD_0" : 6
                    },
                    "indices" : 7,
                    "material" : 1
                },
                {
                    "attributes" : {
                        "POSITION" : 8,
                        "NORMAL" : 9,
                        "TEXCOORD_0" : 10
                    },
                    "indices" : 11,
                    "material" : 2
                },
                {
                    "attributes" : {
                        "POSITION" : 12,
                        "NORMAL" : 13,
                        "TEXCOORD_0" : 14
                    },
                    "indices" : 15,
                    "material" : 3
                },
                {
                    "attributes" : {
                        "POSITION" : 16,
                        "NORMAL" : 17,
                        "TEXCOORD_0" : 18
                    },
                    "indices" : 19,
                    "material" : 4
                },
                {
                    "attributes" : {
                        "POSITION" : 20,
                        "NORMAL" : 21,
                        "TEXCOORD_0" : 22
                    },
                    "indices" : 23,
                    "material" : 5
                },
                {
                    "attributes" : {
                        "POSITION" : 24,
                        "NORMAL" : 25,
                        "TEXCOORD_0" : 26
                    },
                    "indices" : 27,
                    "material" : 6
                }
            ]
        }
    ],
    "accessors" : [
        {
            "bufferView" : 0,
            "componentType" : 5126,
            "count" : 4080,
            "max" : [
                7.01963996887207,
                7.155764102935791,
                9.840826988220215
            ],
            "min" : [
                -7.388425827026367,
                -6.594274044036865,
                -0.0896959975361824
            ],
            "type" : "VEC3"
        },
        {
            "bufferView" : 1,
            "componentType" : 5126,
            "count" : 4080,
            "type" : "VEC3"
        },
        {
            "bufferView" : 2,
            "componentType" : 5126,
            "count" : 4080,
            "type" : "VEC2"
        },
        {
            "bufferView" : 3,
            "componentType" : 5123,
            "count" : 6000,
            "type" : "SCALAR"
        },
        {
            "bufferView" : 4,
            "componentType" : 5126,
            "count" : 7277,
            "max" : [
                7.01963996887207,
                9.058154106140137,
                9.7970609664917
            ],
            "min" : [
                -7.388425827026367,
                -8.96094036102295,
                -0.7761880159378052
            ],
            "type" : "VEC3"
        },
        {
            "bufferView" : 5,
            "componentType" : 5126,
            "count" : 7277,
            "type" : "VEC3"
        },
        {
            "bufferView" : 6,
            "componentType" : 5126,
            "count" : 7277,
            "type" : "VEC2"
        },
        {
            "bufferView" : 7,
            "componentType" : 5123,
            "count" : 10800,
            "type" : "SCALAR"
        },
        {
            "bufferView" : 8,
            "componentType" : 5126,
            "count" : 1532,
            "max" : [
                4.458578109741211,
                3.3377299308776855,
                6.617661952972412
            ],
            "min" : [
                -5.022572040557861,
                -3.2687199115753174,
                3.7456440925598145
            ],
            "type" : "VEC3"
        },
        {
            "bufferView" : 9,
            "componentType" : 5126,
            "count" : 1532,
            "type" : "VEC3"
        },
        {
            "bufferView" : 10,
            "componentType" : 5126,
            "count" : 1532,
            "type" : "VEC2"
        },
        {
            "bufferView" : 11,
            "componentType" : 5123,
            "count" : 3684,
            "type" : "SCALAR"
        },
        {
            "bufferView" : 12,
            "componentType" : 5126,
            "count" : 556,
            "max" : [
                4.458578109741211,
                1.8845670223236084,
                6.4809160232543945
            ],
            "min" : [
                -5.022572040557861,
                -0.0968559980392456,
                3.881247043609619
            ],
            "type" : "VEC3"
        },
        {
            "bufferView" : 13,
            "componentType" : 5126,
            "count" : 556,
            "type" : "VEC3"
        },
        {
            "bufferView" : 14,
            "componentType" : 5126,
            "count" : 556,
            "type" : "VEC2"
        },
        {
            "bufferView" : 15,
            "componentType" : 5123,
            "count" : 1452,
            "type" : "SCALAR"
        },
        {
            "bufferView" : 16,
            "componentType" : 5126,
            "count" : 678,
            "max" : [
                0.855472981929779,
                0.37405601143836975,
                3.987895965576172
            ],
            "min" : [
                -1.3328590393066406,
                -1.3934459686279297,
                1.3700809478759766
            ],
            "type" : "VEC3"
        },
        {
            "bufferView" : 17,
            "componentType" : 5126,
            "count" : 678,
            "type" : "VEC3"
        },
        {
            "bufferView" : 18,
            "componentType" : 5126,
            "count" : 678,
            "type" : "VEC2"
        },
        {
            "bufferView" : 19,
            "componentType" : 5123,
            "count" : 1347,
            "type" : "SCALAR"
        },
        {
            "bufferView" : 20,
            "componentType" : 5126,
            "count" : 328,
            "max" : [
                0.6008039712905884,
                4.459716796875,
                5.376169204711914
            ],
            "min" : [
                -1.0781899690628052,
                -1.3832789659500122,
                1.3700809478759766
            ],
            "type" : "VEC3"
        },
        {
            "bufferView" : 21,
            "componentType" : 5126,
            "count" : 328,
            "type" : "VEC3"
        },
        {
            "bufferView" : 22,
            "componentType" : 5126,
            "count" : 328,
            "type" : "VEC2"
        },
        {
            "bufferView" : 23,
            "componentType" : 5123,
            "count" : 621,
            "type" : "SCALAR"
        },
        {
            "bufferView" : 24,
            "componentType" : 5126,
            "count" : 104,
            "max" : [
                0.7879610061645508,
                3.3429720401763916,
                5.411300182342529
            ],
            "min" : [
                -1.258018970489502,
                -3.3850860595703125,
                2.7329230308532715
            ],
            "type" : "VEC3"
        },
        {
            "bufferView" : 25,
            "componentType" : 5126,
            "count" : 104,
            "type" : "VEC3"
        },
        {
            "bufferView" : 26,
            "componentType" : 5126,
            "count" : 104,
            "type" : "VEC2"
        },
        {
            "bufferView" : 27,
            "componentType" : 5123,
            "count" : 216,
            "type" : "SCALAR"
        }
    ],
    "bufferViews" : [
        {
            "buffer" : 0,
            "byteLength" : 48960,
            "byteOffset" : 0
        },
        {
            "buffer" : 0,
            "byteLength" : 48960,
            "byteOffset" : 48960
        },
        {
            "buffer" : 0,
            "byteLength" : 32640,
            "byteOffset" : 97920
        },
        {
            "buffer" : 0,
            "byteLength" : 12000,
            "byteOffset" : 130560
        },
        {
            "buffer" : 0,
            "byteLength" : 87324,
            "byteOffset" : 142560
        },
        {
            "buffer" : 0,
            "byteLength" : 87324,
            "byteOffset" : 229884
        },
        {
            "buffer" : 0,
            "byteLength" : 58216,
            "byteOffset" : 317208
        },
        {
            "buffer" : 0,
            "byteLength" : 21600,
            "byteOffset" : 375424
        },
        {
            "buffer" : 0,
            "byteLength" : 18384,
            "byteOffset" : 397024
        },
        {
            "buffer" : 0,
            "byteLength" : 18384,
            "byteOffset" : 415408
        },
        {
            "buffer" : 0,
            "byteLength" : 12256,
            "byteOffset" : 433792
        },
        {
            "buffer" : 0,
            "byteLength" : 7368,
            "byteOffset" : 446048
        },
        {
            "buffer" : 0,
            "byteLength" : 6672,
            "byteOffset" : 453416
        },
        {
            "buffer" : 0,
            "byteLength" : 6672,
            "byteOffset" : 460088
        },
        {
            "buffer" : 0,
            "byteLength" : 4448,
            "byteOffset" : 466760
        },
        {
            "buffer" : 0,
            "byteLength" : 2904,
            "byteOffset" : 471208
        },
        {
            "buffer" : 0,
            "byteLength" : 8136,
            "byteOffset" : 474112
        },
        {
            "buffer" : 0,
            "byteLength" : 8136,
            "byteOffset" : 482248
        },
        {
            "buffer" : 0,
            "byteLength" : 5424,
            "byteOffset" : 490384
        },
        {
            "buffer" : 0,
            "byteLength" : 2694,
            "byteOffset" : 495808
        },
        {
            "buffer" : 0,
            "byteLength" : 3936,
            "byteOffset" : 498504
        },
        {
            "buffer" : 0,
            "byteLength" : 3936,
            "byteOffset" : 502440
        },
        {
            "buffer" : 0,
            "byteLength" : 2624,
            "byteOffset" : 506376
        },
        {
            "buffer" : 0,
            "byteLength" : 1242,
            "byteOffset" : 509000
        },
        {
            "buffer" : 0,
            "byteLength" : 1248,
            "byteOffset" : 510244
        },
        {
            "buffer" : 0,
            "byteLength" : 1248,
            "byteOffset" : 511492
        },
        {
            "buffer" : 0,
            "byteLength" : 832,
            "byteOffset" : 512740
        },
        {
            "buffer" : 0,
            "byteLength" : 432,
            "byteOffset" : 513572
        }
    ],
    "buffers" : [
        {
            "byteLength" : 514004,
            "uri" : "data:application/octet-stream;base64,"
        }
    ]
}
