{
    "asset" : {
        "generator" : "Khronos glTF Blender I/O v1.1.46",
        "version" : "2.0"
    },
    "scene" : 0,
    "scenes" : [
        {
            "name" : "Scene",
            "nodes" : [
                0
            ]
        }
    ],
    "nodes" : [
        {
            "mesh" : 0,
            "name" : "AnnaRhino.004",
            "rotation" : [
                0.7071068286895752,
                0,
                0,
                0.7071067094802856
            ],
            "scale" : [
                0.0895809605717659,
                0.0895809605717659,
                0.0895809605717659
            ]
        }
    ],
    "materials" : [
        {
            "alphaMode" : "BLEND",
            "doubleSided" : true,
            "emissiveFactor" : [
                0,
                0,
                0
            ],
            "name" : "lambert3SG.011",
            "pbrMetallicRoughness" : {
                "baseColorFactor" : [
                    0.17000000178813934,
                    0.019999999552965164,
                    0,
                    1
                ],
                "metallicFactor" : 0,
                "roughnessFactor" : 1
            }
        },
        {
            "alphaMode" : "BLEND",
            "doubleSided" : true,
            "emissiveFactor" : [
                0,
                0,
                0
            ],
            "name" : "initialShadingGroup.006",
            "pbrMetallicRoughness" : {
                "baseColorFactor" : [
                    0.5,
                    0.5,
                    0.5,
                    1
                ],
                "metallicFactor" : 0,
                "roughnessFactor" : 1
            }
        },
        {
            "alphaMode" : "BLEND",
            "doubleSided" : true,
            "emissiveFactor" : [
                0,
                0,
                0
            ],
            "name" : "lambert2SG.011",
            "pbrMetallicRoughness" : {
                "baseColorFactor" : [
                    0.019999999552965164,
                    0,
                    0,
                    1
                ],
                "metallicFactor" : 0,
                "roughnessFactor" : 1
            }
        },
        {
            "alphaMode" : "BLEND",
            "doubleSided" : true,
            "emissiveFactor" : [
                0,
                0,
                0
            ],
            "name" : "lambert7SG.004",
            "pbrMetallicRoughness" : {
                "baseColorFactor" : [
                    0.23000000417232513,
                    0.1899999976158142,
                    0.1899999976158142,
                    1
                ],
                "metallicFactor" : 0,
                "roughnessFactor" : 1
            }
        },
        {
            "alphaMode" : "BLEND",
            "doubleSided" : true,
            "emissiveFactor" : [
                0,
                0,
                0
            ],
            "name" : "lambert4SG.009",
            "pbrMetallicRoughness" : {
                "baseColorFactor" : [
                    1,
                    1,
                    1,
                    1
                ],
                "metallicFactor" : 0,
                "roughnessFactor" : 1
            }
        },
        {
            "alphaMode" : "BLEND",
            "doubleSided" : true,
            "emissiveFactor" : [
                0,
                0,
                0
            ],
            "name" : "lambert5SG.005",
            "pbrMetallicRoughness" : {
                "baseColorFactor" : [
                    0.10999999940395355,
                    0.10999999940395355,
                    0.10999999940395355,
                    1
                ],
                "metallicFactor" : 0,
                "roughnessFactor" : 1
            }
        },
        {
            "alphaMode" : "BLEND",
            "doubleSided" : true,
            "emissiveFactor" : [
                0,
                0,
                0
            ],
            "name" : "lambert6SG.004",
            "pbrMetallicRoughness" : {
                "baseColorFactor" : [
                    0,
                    0,
                    0,
                    1
                ],
                "metallicFactor" : 0,
                "roughnessFactor" : 1
            }
        }
    ],
    "meshes" : [
        {
            "name" : "AnnaRhino.004",
            "primitives" : [
                {
                    "attributes" : {
                        "POSITION" : 0,
                        "NORMAL" : 1,
                        "TEXCOORD_0" : 2
                    },
                    "indices" : 3,
                    "material" : 0
                },
                {
                    "attributes" : {
                        "POSITION" : 4,
                        "NORMAL" : 5,
                        "TEXCOORD_0" : 6
                    },
                    "indices" : 7,
                    "material" : 1
                },
                {
                    "attributes" : {
                        "POSITION" : 8,
                        "NORMAL" : 9,
                        "TEXCOORD_0" : 10
                    },
                    "indices" : 11,
                    "material" : 2
                },
                {
                    "attributes" : {
                        "POSITION" : 12,
                        "NORMAL" : 13,
                        "TEXCOORD_0" : 14
                    },
                    "indices" : 15,
                    "material" : 3
                },
                {
                    "attributes" : {
                        "POSITION" : 16,
                        "NORMAL" : 17,
                        "TEXCOORD_0" : 18
                    },
                    "indices" : 19,
                    "material" : 4
                },
                {
                    "attributes" : {
                        "POSITION" : 20,
                        "NORMAL" : 21,
                        "TEXCOORD_0" : 22
                    },
                    "indices" : 23,
                    "material" : 5
                },
                {
                    "attributes" : {
                        "POSITION" : 24,
                        "NORMAL" : 25,
                        "TEXCOORD_0" : 26
                    },
                    "indices" : 27,
                    "material" : 6
                }
            ]
        }
    ],
    "accessors" : [
        {
            "bufferView" : 0,
            "componentType" : 5126,
            "count" : 1068,
            "max" : [
                8.593031883239746,
                11.324210166931152,
                -3.7244749069213867
            ],
            "min" : [
                -8.183008193969727,
                -4.1129350662231445,
                -7.561401844024658
            ],
            "type" : "VEC3"
        },
        {
            "bufferView" : 1,
            "componentType" : 5126,
            "count" : 1068,
            "type" : "VEC3"
        },
        {
            "bufferView" : 2,
            "componentType" : 5126,
            "count" : 1068,
            "type" : "VEC2"
        },
        {
            "bufferView" : 3,
            "componentType" : 5123,
            "count" : 3060,
            "type" : "SCALAR"
        },
        {
            "bufferView" : 4,
            "componentType" : 5126,
            "count" : 2284,
            "max" : [
                6.562600135803223,
                10.279218673706055,
                -3.7244749069213867
            ],
            "min" : [
                -6.287819862365723,
                -2.645287036895752,
                -6.089212894439697
            ],
            "type" : "VEC3"
        },
        {
            "bufferView" : 5,
            "componentType" : 5126,
            "count" : 2284,
            "type" : "VEC3"
        },
        {
            "bufferView" : 6,
            "componentType" : 5126,
            "count" : 2284,
            "type" : "VEC2"
        },
        {
            "bufferView" : 7,
            "componentType" : 5123,
            "count" : 7968,
            "type" : "SCALAR"
        },
        {
            "bufferView" : 8,
            "componentType" : 5126,
            "count" : 396,
            "max" : [
                5.846245765686035,
                9.986193656921387,
                -5.358935832977295
            ],
            "min" : [
                -5.683940887451172,
                -2.19700288772583,
                -6.174519062042236
            ],
            "type" : "VEC3"
        },
        {
            "bufferView" : 9,
            "componentType" : 5126,
            "count" : 396,
            "type" : "VEC3"
        },
        {
            "bufferView" : 10,
            "componentType" : 5126,
            "count" : 396,
            "type" : "VEC2"
        },
        {
            "bufferView" : 11,
            "componentType" : 5123,
            "count" : 1188,
            "type" : "SCALAR"
        },
        {
            "bufferView" : 12,
            "componentType" : 5126,
            "count" : 786,
            "max" : [
                1.767001986503601,
                8.069162368774414,
                0.004232000093907118
            ],
            "min" : [
                -1.714277982711792,
                -3.3586409091949463,
                -6.105778217315674
            ],
            "type" : "VEC3"
        },
        {
            "bufferView" : 13,
            "componentType" : 5126,
            "count" : 786,
            "type" : "VEC3"
        },
        {
            "bufferView" : 14,
            "componentType" : 5126,
            "count" : 786,
            "type" : "VEC2"
        },
        {
            "bufferView" : 15,
            "componentType" : 5123,
            "count" : 2229,
            "type" : "SCALAR"
        },
        {
            "bufferView" : 16,
            "componentType" : 5126,
            "count" : 165,
            "max" : [
                1.767001986503601,
                9.256080627441406,
                0.004232000093907118
            ],
            "min" : [
                -1.714277982711792,
                -3.096869945526123,
                -3.799027919769287
            ],
            "type" : "VEC3"
        },
        {
            "bufferView" : 17,
            "componentType" : 5126,
            "count" : 165,
            "type" : "VEC3"
        },
        {
            "bufferView" : 18,
            "componentType" : 5126,
            "count" : 165,
            "type" : "VEC2"
        },
        {
            "bufferView" : 19,
            "componentType" : 5123,
            "count" : 432,
            "type" : "SCALAR"
        },
        {
            "bufferView" : 20,
            "componentType" : 5126,
            "count" : 97,
            "max" : [
                0.8048340082168579,
                6.723721027374268,
                -3.0354979038238525
            ],
            "min" : [
                -0.8191440105438232,
                -3.3176040649414062,
                -5.882627010345459
            ],
            "type" : "VEC3"
        },
        {
            "bufferView" : 21,
            "componentType" : 5126,
            "count" : 97,
            "type" : "VEC3"
        },
        {
            "bufferView" : 22,
            "componentType" : 5126,
            "count" : 97,
            "type" : "VEC2"
        },
        {
            "bufferView" : 23,
            "componentType" : 5123,
            "count" : 240,
            "type" : "SCALAR"
        },
        {
            "bufferView" : 24,
            "componentType" : 5126,
            "count" : 36,
            "max" : [
                0.14632099866867065,
                -3.1317241191864014,
                -2.818276882171631
            ],
            "min" : [
                -0.15922799706459045,
                -3.342621088027954,
                -3.1390719413757324
            ],
            "type" : "VEC3"
        },
        {
            "bufferView" : 25,
            "componentType" : 5126,
            "count" : 36,
            "type" : "VEC3"
        },
        {
            "bufferView" : 26,
            "componentType" : 5126,
            "count" : 36,
            "type" : "VEC2"
        },
        {
            "bufferView" : 27,
            "componentType" : 5123,
            "count" : 87,
            "type" : "SCALAR"
        }
    ],
    "bufferViews" : [
        {
            "buffer" : 0,
            "byteLength" : 12816,
            "byteOffset" : 0
        },
        {
            "buffer" : 0,
            "byteLength" : 12816,
            "byteOffset" : 12816
        },
        {
            "buffer" : 0,
            "byteLength" : 8544,
            "byteOffset" : 25632
        },
        {
            "buffer" : 0,
            "byteLength" : 6120,
            "byteOffset" : 34176
        },
        {
            "buffer" : 0,
            "byteLength" : 27408,
            "byteOffset" : 40296
        },
        {
            "buffer" : 0,
            "byteLength" : 27408,
            "byteOffset" : 67704
        },
        {
            "buffer" : 0,
            "byteLength" : 18272,
            "byteOffset" : 95112
        },
        {
            "buffer" : 0,
            "byteLength" : 15936,
            "byteOffset" : 113384
        },
        {
            "buffer" : 0,
            "byteLength" : 4752,
            "byteOffset" : 129320
        },
        {
            "buffer" : 0,
            "byteLength" : 4752,
            "byteOffset" : 134072
        },
        {
            "buffer" : 0,
            "byteLength" : 3168,
            "byteOffset" : 138824
        },
        {
            "buffer" : 0,
            "byteLength" : 2376,
            "byteOffset" : 141992
        },
        {
            "buffer" : 0,
            "byteLength" : 9432,
            "byteOffset" : 144368
        },
        {
            "buffer" : 0,
            "byteLength" : 9432,
            "byteOffset" : 153800
        },
        {
            "buffer" : 0,
            "byteLength" : 6288,
            "byteOffset" : 163232
        },
        {
            "buffer" : 0,
            "byteLength" : 4458,
            "byteOffset" : 169520
        },
        {
            "buffer" : 0,
            "byteLength" : 1980,
            "byteOffset" : 173980
        },
        {
            "buffer" : 0,
            "byteLength" : 1980,
            "byteOffset" : 175960
        },
        {
            "buffer" : 0,
            "byteLength" : 1320,
            "byteOffset" : 177940
        },
        {
            "buffer" : 0,
            "byteLength" : 864,
            "byteOffset" : 179260
        },
        {
            "buffer" : 0,
            "byteLength" : 1164,
            "byteOffset" : 180124
        },
        {
            "buffer" : 0,
            "byteLength" : 1164,
            "byteOffset" : 181288
        },
        {
            "buffer" : 0,
            "byteLength" : 776,
            "byteOffset" : 182452
        },
        {
            "buffer" : 0,
            "byteLength" : 480,
            "byteOffset" : 183228
        },
        {
            "buffer" : 0,
            "byteLength" : 432,
            "byteOffset" : 183708
        },
        {
            "buffer" : 0,
            "byteLength" : 432,
            "byteOffset" : 184140
        },
        {
            "buffer" : 0,
            "byteLength" : 288,
            "byteOffset" : 184572
        },
        {
            "buffer" : 0,
            "byteLength" : 174,
            "byteOffset" : 184860
        }
    ],
    "buffers" : [
        {
            "byteLength" : 185036,
            "uri" : "data:application/octet-stream;base64,"
        }
    ]
}
